<?xml version="1.0" encoding="UTF-8"?>
<!DOCTYPE svg PUBLIC "-//W3C//DTD SVG 1.1//EN" "http://www.w3.org/Graphics/SVG/1.1/DTD/svg11.dtd">
<svg xmlns="http://www.w3.org/2000/svg" version="1.1" width="379px" height="360px" style="shape-rendering:geometricPrecision; text-rendering:geometricPrecision; image-rendering:optimizeQuality; fill-rule:evenodd; clip-rule:evenodd" xmlns:xlink="http://www.w3.org/1999/xlink">
<g><path style="opacity:0.122" fill="#ced8c0" d="M 184.5,37.5 C 184.785,39.288 184.452,40.9547 183.5,42.5C 182.893,42.3764 182.56,42.0431 182.5,41.5C 183.167,40.1667 183.833,38.8333 184.5,37.5 Z"/></g>
<g><path style="opacity:0.31" fill="#899a75" d="M 194.5,39.5 C 198.157,42.0964 199.49,45.7631 198.5,50.5C 197.471,46.7652 196.138,43.0986 194.5,39.5 Z"/></g>
<g><path style="opacity:0.016" fill="#deecc2" d="M 180.5,47.5 C 180.808,49.924 180.474,52.2573 179.5,54.5C 178.893,54.3764 178.56,54.0431 178.5,53.5C 179.167,51.5 179.833,49.5 180.5,47.5 Z"/></g>
<g><path style="opacity:1" fill="#62764b" d="M 186.5,19.5 C 186.415,27.0139 186.415,34.3472 186.5,41.5C 184.859,44.5583 184.026,47.8917 184,51.5C 182.145,54.0219 179.978,56.1886 177.5,58C 179.212,62.1085 178.378,65.6085 175,68.5C 174.605,70.1786 174.772,71.8453 175.5,73.5C 174.516,75.4799 173.183,77.1466 171.5,78.5C 170.223,81.0341 170.223,83.5341 171.5,86C 170.934,86.9947 170.267,87.828 169.5,88.5C 169.5,84.5 169.5,80.5 169.5,76.5C 170.791,76.7373 171.791,76.404 172.5,75.5C 172.176,71.4454 172.509,67.4454 173.5,63.5C 174.086,63.7093 174.586,64.0426 175,64.5C 175.333,61.1667 175.667,57.8333 176,54.5C 176.671,53.7476 177.504,53.4142 178.5,53.5C 178.56,54.0431 178.893,54.3764 179.5,54.5C 180.474,52.2573 180.808,49.924 180.5,47.5C 180.025,44.9179 180.692,42.9179 182.5,41.5C 182.56,42.0431 182.893,42.3764 183.5,42.5C 184.452,40.9547 184.785,39.288 184.5,37.5C 184.918,31.3306 185.585,25.3306 186.5,19.5 Z"/></g>
<g><path style="opacity:1" fill="#547136" d="M 194.5,39.5 C 196.138,43.0986 197.471,46.7652 198.5,50.5C 199.481,52.4981 200.815,53.9981 202.5,55C 203.093,58.1514 203.593,61.318 204,64.5C 204.414,64.0426 204.914,63.7093 205.5,63.5C 206.491,67.4454 206.824,71.4454 206.5,75.5C 207.277,80.0836 207.777,84.7503 208,89.5C 210.139,94.0618 211.972,98.7284 213.5,103.5C 212.415,104.784 211.748,106.284 211.5,108C 211.608,109.681 212.275,110.848 213.5,111.5C 213.5,111.833 213.5,112.167 213.5,112.5C 214.377,115.411 214.377,118.411 213.5,121.5C 213.833,122.833 214.167,124.167 214.5,125.5C 215.107,125.376 215.44,125.043 215.5,124.5C 215.56,123.957 215.893,123.624 216.5,123.5C 217.466,125.396 217.799,127.396 217.5,129.5C 214.262,131.513 212.929,134.513 213.5,138.5C 214.833,138.5 216.167,138.5 217.5,138.5C 217.723,141.114 216.556,142.781 214,143.5C 213.505,145.473 213.338,147.473 213.5,149.5C 211.833,149.5 210.167,149.5 208.5,149.5C 208.773,147.549 208.107,146.049 206.5,145C 207.601,142.708 206.768,141.208 204,140.5C 203.097,141.701 201.931,142.535 200.5,143C 201.448,143.483 202.448,143.649 203.5,143.5C 203.331,145.912 203.997,148.079 205.5,150C 204.852,151.44 204.519,152.94 204.5,154.5C 206.821,154.771 208.821,154.104 210.5,152.5C 212.444,153.189 214.444,153.689 216.5,154C 213.553,154.075 212.553,155.242 213.5,157.5C 210.119,157.46 206.786,157.793 203.5,158.5C 203.649,159.552 203.483,160.552 203,161.5C 202.667,159.5 202.333,157.5 202,155.5C 201.617,154.944 201.117,154.611 200.5,154.5C 199.327,152.496 197.66,150.996 195.5,150C 191.368,148.1 187.034,147.267 182.5,147.5C 181.07,147.421 179.736,147.754 178.5,148.5C 177.852,150.149 176.852,151.482 175.5,152.5C 175.317,147.968 173.651,144.135 170.5,141C 164.804,140.17 159.137,140.337 153.5,141.5C 151.459,142.707 150.126,144.374 149.5,146.5C 147.97,147.211 146.637,148.211 145.5,149.5C 146.265,146.904 146.599,144.237 146.5,141.5C 149.969,138.23 153.969,137.23 158.5,138.5C 159.833,137.833 161.167,137.167 162.5,136.5C 163.46,132.861 163.46,129.195 162.5,125.5C 163.5,125.5 164.5,125.5 165.5,125.5C 165.48,123.857 166.147,122.524 167.5,121.5C 166.311,120.571 164.978,120.238 163.5,120.5C 163.187,117.428 163.854,114.595 165.5,112C 165.43,111.235 165.097,110.735 164.5,110.5C 163.417,106.915 162.751,103.249 162.5,99.5C 163.5,99.5 164.5,99.5 165.5,99.5C 165.56,100.043 165.893,100.376 166.5,100.5C 166.833,99.3333 167.167,98.1667 167.5,97C 166.969,94.1834 166.636,91.35 166.5,88.5C 167.5,88.5 168.5,88.5 169.5,88.5C 170.267,87.828 170.934,86.9947 171.5,86C 170.223,83.5341 170.223,81.0341 171.5,78.5C 173.183,77.1466 174.516,75.4799 175.5,73.5C 174.772,71.8453 174.605,70.1786 175,68.5C 178.378,65.6085 179.212,62.1085 177.5,58C 179.978,56.1886 182.145,54.0219 184,51.5C 184.026,47.8917 184.859,44.5583 186.5,41.5C 186.415,34.3472 186.415,27.0139 186.5,19.5C 186.362,14.8467 187.362,10.5133 189.5,6.5C 192.372,17.2679 194.039,28.2679 194.5,39.5 Z"/></g>
<g><path style="opacity:0.392" fill="#8f9c80" d="M 172.5,75.5 C 171.791,76.404 170.791,76.7373 169.5,76.5C 169.5,80.5 169.5,84.5 169.5,88.5C 168.5,88.5 167.5,88.5 166.5,88.5C 166.636,91.35 166.969,94.1834 167.5,97C 167.167,98.1667 166.833,99.3333 166.5,100.5C 165.893,100.376 165.56,100.043 165.5,99.5C 166.437,96.8458 166.437,94.0125 165.5,91C 165.667,89.8333 165.833,88.6667 166,87.5C 166.667,86.1667 167.333,86.1667 168,87.5C 168.499,83.5138 168.666,79.5138 168.5,75.5C 169.833,75.5 171.167,75.5 172.5,75.5 Z"/></g>
<g><path style="opacity:1" fill="#657b4e" d="M 206.5,75.5 C 207.833,75.5 209.167,75.5 210.5,75.5C 210.815,79.3714 210.482,83.0381 209.5,86.5C 208.957,86.56 208.624,86.8933 208.5,87.5C 209.689,88.4287 211.022,88.762 212.5,88.5C 212.5,90.5 212.5,92.5 212.5,94.5C 212.5,96.1667 212.5,97.8333 212.5,99.5C 214.346,99.2222 215.68,99.8888 216.5,101.5C 215.74,105.02 214.74,108.353 213.5,111.5C 212.275,110.848 211.608,109.681 211.5,108C 211.748,106.284 212.415,104.784 213.5,103.5C 211.972,98.7284 210.139,94.0618 208,89.5C 207.777,84.7503 207.277,80.0836 206.5,75.5 Z"/></g>
<g><path style="opacity:0.173" fill="#aab99d" d="M 209.5,86.5 C 210.625,87.0141 211.791,87.3474 213,87.5C 213.796,90.0385 213.629,92.3718 212.5,94.5C 212.5,92.5 212.5,90.5 212.5,88.5C 211.022,88.762 209.689,88.4287 208.5,87.5C 208.624,86.8933 208.957,86.56 209.5,86.5 Z"/></g>
<g><path style="opacity:0.999" fill="#758460" d="M 33.5,108.5 C 31.7376,108.643 30.0709,108.309 28.5,107.5C 27.7025,107.957 27.3691,108.624 27.5,109.5C 25.2741,107.428 23.6074,104.928 22.5,102C 23,101.5 23.5,101 24,100.5C 27.8866,102.353 31.0533,105.02 33.5,108.5 Z"/></g>
<g><path style="opacity:1" fill="#6b7d55" d="M 342.5,120.5 C 342.215,118.712 342.548,117.045 343.5,115.5C 346.168,114.485 346.834,112.818 345.5,110.5C 342.787,112.733 339.787,114.4 336.5,115.5C 341.899,109.606 348.065,104.606 355,100.5C 355.667,101.833 355.667,103.167 355,104.5C 350.97,110.02 346.803,115.353 342.5,120.5 Z"/></g>
<g><path style="opacity:0.659" fill="#899381" d="M 164.5,110.5 C 165.097,110.735 165.43,111.235 165.5,112C 163.854,114.595 163.187,117.428 163.5,120.5C 162.734,118.316 162.067,115.982 161.5,113.5C 162.993,112.859 163.993,111.859 164.5,110.5 Z"/></g>
<g><path style="opacity:1" fill="#687c51" d="M 33.5,108.5 C 39.7734,113.264 45.9401,118.264 52,123.5C 52.2492,122.376 52.7492,121.376 53.5,120.5C 56.8044,122.14 59.471,124.473 61.5,127.5C 58.62,126.788 55.62,125.788 52.5,124.5C 50.9291,125.309 49.2624,125.643 47.5,125.5C 47.6602,123.801 47.4935,122.134 47,120.5C 44.749,118.967 41.9157,117.634 38.5,116.5C 37.4173,117.365 37.2506,118.365 38,119.5C 40.3495,122.577 42.1828,125.91 43.5,129.5C 37.7163,123.307 32.3829,116.641 27.5,109.5C 27.3691,108.624 27.7025,107.957 28.5,107.5C 30.0709,108.309 31.7376,108.643 33.5,108.5 Z"/></g>
<g><path style="opacity:1" fill="#728560" d="M 213.5,112.5 C 214.833,112.5 216.167,112.5 217.5,112.5C 217.132,116.342 216.132,120.009 214.5,123.5C 214.624,124.107 214.957,124.44 215.5,124.5C 215.44,125.043 215.107,125.376 214.5,125.5C 214.167,124.167 213.833,122.833 213.5,121.5C 214.377,118.411 214.377,115.411 213.5,112.5 Z"/></g>
<g><path style="opacity:0.039" fill="#d3dec4" d="M 323.5,121.5 C 323.735,120.903 324.235,120.57 325,120.5C 326.011,121.056 326.844,121.722 327.5,122.5C 327.44,123.043 327.107,123.376 326.5,123.5C 325.735,122.388 324.735,121.721 323.5,121.5 Z"/></g>
<g><path style="opacity:1" fill="#5b7542" d="M 342.5,120.5 C 340.417,123.651 338.084,126.651 335.5,129.5C 335.977,130.478 336.643,131.311 337.5,132C 334.833,135.333 332.167,138.667 329.5,142C 331.283,143.067 331.783,144.567 331,146.5C 328.63,149.039 326.13,151.372 323.5,153.5C 324.702,149.952 325.369,146.285 325.5,142.5C 326.552,142.649 327.552,142.483 328.5,142C 327.748,141.329 327.414,140.496 327.5,139.5C 327.804,138.85 328.137,138.183 328.5,137.5C 326.494,134.994 324.16,132.827 321.5,131C 323.7,130.536 326.033,130.036 328.5,129.5C 328.778,127.654 328.111,126.32 326.5,125.5C 325.167,126.833 323.833,126.833 322.5,125.5C 320.929,127.415 318.929,128.415 316.5,128.5C 318.527,125.806 320.861,123.473 323.5,121.5C 324.735,121.721 325.735,122.388 326.5,123.5C 327.107,123.376 327.44,123.043 327.5,122.5C 329.918,119.453 332.918,117.12 336.5,115.5C 339.787,114.4 342.787,112.733 345.5,110.5C 346.834,112.818 346.168,114.485 343.5,115.5C 342.548,117.045 342.215,118.712 342.5,120.5 Z"/></g>
<g><path style="opacity:1" fill="#6c7c58" d="M 43.5,131.5 C 45.926,134.446 47.926,137.78 49.5,141.5C 46.55,139.379 44.05,136.713 42,133.5C 41.4719,132.184 41.9719,131.517 43.5,131.5 Z"/></g>
<g><path style="opacity:0.849" fill="#758861" d="M 61.5,127.5 C 62.4584,127.953 63.2917,128.619 64,129.5C 64.7253,127.842 65.892,127.342 67.5,128C 69.7372,129.4 71.4038,131.233 72.5,133.5C 69.7374,133.256 67.5707,131.923 66,129.5C 64.8904,131.037 63.3904,131.703 61.5,131.5C 61.5,130.167 61.5,128.833 61.5,127.5 Z"/></g>
<g><path style="opacity:1" fill="#62774a" d="M 316.5,128.5 C 315.817,130.176 314.483,130.843 312.5,130.5C 312.824,133.694 311.658,134.694 309,133.5C 307.048,135.894 304.548,137.394 301.5,138C 299.19,139.637 297.69,141.804 297,144.5C 295.513,143.747 295.346,142.914 296.5,142C 295.906,141.536 295.239,141.369 294.5,141.5C 296.064,137.765 298.564,134.765 302,132.5C 302.852,133.571 303.685,134.571 304.5,135.5C 306.587,134.415 307.92,132.749 308.5,130.5C 310.701,126.553 312.867,126.219 315,129.5C 315.383,128.944 315.883,128.611 316.5,128.5 Z"/></g>
<g><path style="opacity:0.404" fill="#a3b098" d="M 308.5,130.5 C 307.92,132.749 306.587,134.415 304.5,135.5C 305.08,133.251 306.413,131.585 308.5,130.5 Z"/></g>
<g><path style="opacity:1" fill="#537136" d="M 327.5,139.5 C 326.518,140.141 325.518,140.807 324.5,141.5C 323.41,140.609 323.41,139.609 324.5,138.5C 322.576,136.991 321.409,134.991 321,132.5C 319.693,133.772 318.193,134.772 316.5,135.5C 315.549,140.77 315.215,146.103 315.5,151.5C 314.07,151.421 312.736,151.754 311.5,152.5C 309.54,154.901 308.04,157.567 307,160.5C 304.667,157.833 302.333,157.833 300,160.5C 298.507,158.44 296.674,158.107 294.5,159.5C 293.338,164.478 292.338,169.478 291.5,174.5C 286.778,174.848 282.111,175.515 277.5,176.5C 277.5,179.167 277.5,181.833 277.5,184.5C 278.552,184.351 279.552,184.517 280.5,185C 279.667,187.167 278.167,188.667 276,189.5C 275.517,190.448 275.351,191.448 275.5,192.5C 277.167,192.5 278.833,192.5 280.5,192.5C 280.5,195.167 280.5,197.833 280.5,200.5C 281.822,200.67 282.989,200.337 284,199.5C 285.618,191.766 286.952,192.099 288,200.5C 288.5,201.667 289.333,202.5 290.5,203C 285.597,203.612 280.597,203.445 275.5,202.5C 275.5,203.5 275.5,204.5 275.5,205.5C 278.167,205.167 280.833,204.833 283.5,204.5C 283.5,206.167 283.5,207.833 283.5,209.5C 283.631,210.239 283.464,210.906 283,211.5C 280.479,212 278.646,213.333 277.5,215.5C 276.055,217.701 274.388,219.867 272.5,222C 270.19,222.497 267.857,222.663 265.5,222.5C 265.799,224.604 265.466,226.604 264.5,228.5C 262.787,228.879 261.787,229.879 261.5,231.5C 260.432,232.434 259.099,232.768 257.5,232.5C 256.167,232.5 254.833,232.5 253.5,232.5C 253.5,233.833 253.5,235.167 253.5,236.5C 252.292,235.766 250.959,235.433 249.5,235.5C 250.137,232.365 249.471,229.365 247.5,226.5C 246.325,226.719 245.325,226.386 244.5,225.5C 243.935,223.491 242.935,221.824 241.5,220.5C 242.355,219.469 243.022,218.303 243.5,217C 241.361,213.764 239.695,210.264 238.5,206.5C 240.557,201.237 243.057,196.237 246,191.5C 247.199,188.274 247.699,184.941 247.5,181.5C 248.907,179.468 250.24,177.301 251.5,175C 256.414,174.455 258.747,171.621 258.5,166.5C 259.531,165.645 260.697,164.978 262,164.5C 263.578,165.547 265.078,165.547 266.5,164.5C 267.946,162.382 268.613,160.049 268.5,157.5C 269.401,153.478 271.234,152.811 274,155.5C 274.377,154.058 275.21,153.058 276.5,152.5C 277.922,152.25 278.922,151.417 279.5,150C 282.576,149.654 285.576,148.988 288.5,148C 287.862,146.293 287.862,144.46 288.5,142.5C 290.735,142.795 292.735,142.461 294.5,141.5C 295.239,141.369 295.906,141.536 296.5,142C 295.346,142.914 295.513,143.747 297,144.5C 297.69,141.804 299.19,139.637 301.5,138C 304.548,137.394 307.048,135.894 309,133.5C 311.658,134.694 312.824,133.694 312.5,130.5C 314.483,130.843 315.817,130.176 316.5,128.5C 318.929,128.415 320.929,127.415 322.5,125.5C 323.833,126.833 325.167,126.833 326.5,125.5C 328.111,126.32 328.778,127.654 328.5,129.5C 326.033,130.036 323.7,130.536 321.5,131C 324.16,132.827 326.494,134.994 328.5,137.5C 328.137,138.183 327.804,138.85 327.5,139.5 Z"/></g>
<g><path style="opacity:0.776" fill="#849170" d="M 80.5,136.5 C 79.8826,136.611 79.3826,136.944 79,137.5C 77.3513,136.047 75.5179,135.047 73.5,134.5C 76.5102,131.807 78.8436,132.474 80.5,136.5 Z"/></g>
<g><path style="opacity:0.998" fill="#697e51" d="M 163.5,120.5 C 164.978,120.238 166.311,120.571 167.5,121.5C 166.147,122.524 165.48,123.857 165.5,125.5C 164.5,125.5 163.5,125.5 162.5,125.5C 163.46,129.195 163.46,132.861 162.5,136.5C 161.167,137.167 159.833,137.833 158.5,138.5C 153.969,137.23 149.969,138.23 146.5,141.5C 146.859,139.629 147.859,138.129 149.5,137C 153.809,134.853 158.142,133.686 162.5,133.5C 161.878,130.63 161.211,127.796 160.5,125C 161.938,124.781 163.271,124.281 164.5,123.5C 163.873,122.583 163.539,121.583 163.5,120.5 Z"/></g>
<g><path style="opacity:1" fill="#537036" d="M 327.5,139.5 C 327.414,140.496 327.748,141.329 328.5,142C 327.552,142.483 326.552,142.649 325.5,142.5C 325.369,146.285 324.702,149.952 323.5,153.5C 323.833,154.167 324.167,154.833 324.5,155.5C 323.549,156.919 323.216,158.585 323.5,160.5C 323.167,160.5 322.833,160.5 322.5,160.5C 319.235,160.299 316.569,161.466 314.5,164C 315.426,166.957 315.426,169.624 314.5,172C 310.429,173.751 308.429,176.918 308.5,181.5C 306.221,182.737 304.055,184.07 302,185.5C 301.444,187.885 301.61,190.218 302.5,192.5C 295.107,192.878 291.773,196.544 292.5,203.5C 290.967,205.245 288.967,206.245 286.5,206.5C 285.1,207.1 284.1,208.1 283.5,209.5C 283.5,207.833 283.5,206.167 283.5,204.5C 280.833,204.833 278.167,205.167 275.5,205.5C 275.5,204.5 275.5,203.5 275.5,202.5C 280.597,203.445 285.597,203.612 290.5,203C 289.333,202.5 288.5,201.667 288,200.5C 286.952,192.099 285.618,191.766 284,199.5C 282.989,200.337 281.822,200.67 280.5,200.5C 280.5,197.833 280.5,195.167 280.5,192.5C 278.833,192.5 277.167,192.5 275.5,192.5C 275.351,191.448 275.517,190.448 276,189.5C 278.167,188.667 279.667,187.167 280.5,185C 279.552,184.517 278.552,184.351 277.5,184.5C 277.5,181.833 277.5,179.167 277.5,176.5C 282.111,175.515 286.778,174.848 291.5,174.5C 292.338,169.478 293.338,164.478 294.5,159.5C 296.674,158.107 298.507,158.44 300,160.5C 302.333,157.833 304.667,157.833 307,160.5C 308.04,157.567 309.54,154.901 311.5,152.5C 312.736,151.754 314.07,151.421 315.5,151.5C 315.215,146.103 315.549,140.77 316.5,135.5C 318.193,134.772 319.693,133.772 321,132.5C 321.409,134.991 322.576,136.991 324.5,138.5C 323.41,139.609 323.41,140.609 324.5,141.5C 325.518,140.807 326.518,140.141 327.5,139.5 Z"/></g>
<g><path style="opacity:1" fill="#6f825c" d="M 217.5,129.5 C 217.178,132.306 216.178,134.806 214.5,137C 215.793,137.49 217.127,137.657 218.5,137.5C 218.381,142.19 217.048,146.524 214.5,150.5C 215.602,151.176 216.602,151.842 217.5,152.5C 216.167,152.5 214.833,152.5 213.5,152.5C 213.5,151.5 213.5,150.5 213.5,149.5C 213.338,147.473 213.505,145.473 214,143.5C 216.556,142.781 217.723,141.114 217.5,138.5C 216.167,138.5 214.833,138.5 213.5,138.5C 212.929,134.513 214.262,131.513 217.5,129.5 Z"/></g>
<g><path style="opacity:1" fill="#547138" d="M 61.5,127.5 C 61.5,128.833 61.5,130.167 61.5,131.5C 63.3904,131.703 64.8904,131.037 66,129.5C 67.5707,131.923 69.7374,133.256 72.5,133.5C 73.1667,133.5 73.5,133.833 73.5,134.5C 75.5179,135.047 77.3513,136.047 79,137.5C 79.3826,136.944 79.8826,136.611 80.5,136.5C 81.4511,138.118 82.7844,139.451 84.5,140.5C 85.7678,139.572 87.1011,139.405 88.5,140C 90.7879,142.743 92.9545,145.577 95,148.5C 95.7253,146.842 96.892,146.342 98.5,147C 100.69,149.356 102.69,151.856 104.5,154.5C 105.891,153.355 107.224,153.355 108.5,154.5C 110.689,156.887 112.356,159.553 113.5,162.5C 112.603,161.402 111.77,161.402 111,162.5C 109.956,161.377 109.29,160.044 109,158.5C 107.186,157.24 105.353,157.24 103.5,158.5C 102.932,161.452 101.766,164.119 100,166.5C 97.8055,163.963 94.9721,162.963 91.5,163.5C 91.5,164.5 91.5,165.5 91.5,166.5C 85.8236,166.666 80.1569,166.499 74.5,166C 73.0692,165.535 71.9025,164.701 71,163.5C 70.5065,165.134 70.3398,166.801 70.5,168.5C 63.8445,167.144 63.1778,168.477 68.5,172.5C 69.782,173.958 69.782,175.292 68.5,176.5C 67.6328,173.773 65.7994,171.773 63,170.5C 62.5899,169.099 62.0899,167.766 61.5,166.5C 61.5,166.167 61.5,165.833 61.5,165.5C 61.4048,162.728 60.0715,160.728 57.5,159.5C 56.4375,156.228 56.7708,153.061 58.5,150C 54.8464,147.746 51.8464,144.913 49.5,141.5C 47.926,137.78 45.926,134.446 43.5,131.5C 43.5,130.833 43.5,130.167 43.5,129.5C 42.1828,125.91 40.3495,122.577 38,119.5C 37.2506,118.365 37.4173,117.365 38.5,116.5C 41.9157,117.634 44.749,118.967 47,120.5C 47.4935,122.134 47.6602,123.801 47.5,125.5C 49.2624,125.643 50.9291,125.309 52.5,124.5C 55.62,125.788 58.62,126.788 61.5,127.5 Z"/></g>
<g><path style="opacity:1" fill="#dcb461" d="M 172.5,146.5 C 173.147,147.274 173.48,148.274 173.5,149.5C 173.032,152.233 172.365,154.9 171.5,157.5C 169.926,159.102 169.259,161.102 169.5,163.5C 163.518,162.169 157.518,160.835 151.5,159.5C 151.124,154.003 152.457,149.003 155.5,144.5C 158.784,143.343 162.118,143.176 165.5,144C 167.569,145.523 169.903,146.357 172.5,146.5 Z"/></g>
<g><path style="opacity:1" fill="#677c50" d="M 49.5,141.5 C 51.8464,144.913 54.8464,147.746 58.5,150C 56.7708,153.061 56.4375,156.228 57.5,159.5C 60.0715,160.728 61.4048,162.728 61.5,165.5C 57.7181,163.553 54.7181,160.72 52.5,157C 52.9504,155.715 53.6171,154.548 54.5,153.5C 51.0088,151.011 48.3422,147.845 46.5,144C 47.5707,143.148 48.5707,142.315 49.5,141.5 Z"/></g>
<g><path style="opacity:0.976" fill="#6e805c" d="M 146.5,141.5 C 146.599,144.237 146.265,146.904 145.5,149.5C 144.837,151.042 144.17,152.709 143.5,154.5C 142.817,154.863 142.15,155.196 141.5,155.5C 142.653,150.552 144.32,145.885 146.5,141.5 Z"/></g>
<g><path style="opacity:0.992" fill="#6c805a" d="M 294.5,141.5 C 292.735,142.461 290.735,142.795 288.5,142.5C 287.862,144.46 287.862,146.293 288.5,148C 285.576,148.988 282.576,149.654 279.5,150C 278.922,151.417 277.922,152.25 276.5,152.5C 277.426,149.905 279.093,147.905 281.5,146.5C 282.647,146.818 283.481,147.484 284,148.5C 285.841,144.817 288.174,141.484 291,138.5C 292.039,139.71 293.206,140.71 294.5,141.5 Z"/></g>
<g><path style="opacity:1" fill="#d9b462" d="M 182.5,147.5 C 187.034,147.267 191.368,148.1 195.5,150C 197.66,150.996 199.327,152.496 200.5,154.5C 197.61,170.059 193.777,185.392 189,200.5C 182.623,203.351 176.456,202.851 170.5,199C 168.963,197.89 168.297,196.39 168.5,194.5C 170.95,194.702 173.283,194.369 175.5,193.5C 182.705,191.8 186.038,187.133 185.5,179.5C 186.005,171.672 182.338,167.672 174.5,167.5C 175.747,163.285 176.58,158.952 177,154.5C 177.967,151.379 179.8,149.046 182.5,147.5 Z"/></g>
<g><path style="opacity:1" fill="#c4af67" d="M 172.5,146.5 C 169.903,146.357 167.569,145.523 165.5,144C 162.118,143.176 158.784,143.343 155.5,144.5C 152.457,149.003 151.124,154.003 151.5,159.5C 157.518,160.835 163.518,162.169 169.5,163.5C 169.259,161.102 169.926,159.102 171.5,157.5C 170.908,160.127 170.575,162.794 170.5,165.5C 163.142,163.628 155.809,161.628 148.5,159.5C 148.5,158.5 148.5,157.5 148.5,156.5C 150.266,152.715 151.766,148.715 153,144.5C 153.833,143.667 154.667,142.833 155.5,142C 162.018,140.877 167.685,142.377 172.5,146.5 Z"/></g>
<g><path style="opacity:0.447" fill="#9ba190" d="M 324.5,155.5 C 325.376,155.369 326.043,155.702 326.5,156.5C 325.479,157.901 324.479,159.235 323.5,160.5C 323.216,158.585 323.549,156.919 324.5,155.5 Z"/></g>
<g><path style="opacity:1" fill="#577238" d="M 149.5,146.5 C 148.949,149.807 148.616,153.14 148.5,156.5C 148.5,157.5 148.5,158.5 148.5,159.5C 149.343,161.173 150.676,162.34 152.5,163C 148.049,163.13 143.716,163.796 139.5,165C 138.331,167.007 137.665,169.173 137.5,171.5C 133.5,181.981 129,192.315 124,202.5C 122.595,206.072 122.262,209.739 123,213.5C 125.865,219.04 129.532,224.04 134,228.5C 142.09,236.422 149.924,244.422 157.5,252.5C 161.254,256.183 162.92,260.683 162.5,266C 160.354,286.774 158.354,307.607 156.5,328.5C 155.054,334.274 154.388,340.274 154.5,346.5C 178.994,347.498 203.661,347.831 228.5,347.5C 228.823,340.978 228.49,334.645 227.5,328.5C 226.527,326.052 226.194,323.385 226.5,320.5C 226.5,318.833 226.5,317.167 226.5,315.5C 227.892,317.273 229.059,319.273 230,321.5C 230.038,325.563 230.872,329.397 232.5,333C 231.409,335.064 231.242,337.231 232,339.5C 233.128,337.655 233.628,335.655 233.5,333.5C 234.458,338.649 235.125,343.983 235.5,349.5C 235.324,351.785 234.657,353.785 233.5,355.5C 203.91,356.28 174.244,356.613 144.5,356.5C 145.202,347.992 146.202,339.659 147.5,331.5C 149.031,326.75 149.698,321.75 149.5,316.5C 150.193,312.435 150.86,308.268 151.5,304C 150.207,303.51 148.873,303.343 147.5,303.5C 147.5,304.833 147.5,306.167 147.5,307.5C 147.167,307.5 146.833,307.5 146.5,307.5C 141.648,305.978 137.481,307.311 134,311.5C 133.667,311.167 133.333,310.833 133,310.5C 131.731,311.905 131.231,313.571 131.5,315.5C 129.585,315.216 127.919,315.549 126.5,316.5C 120.734,317.44 114.734,318.607 108.5,320C 107.944,320.383 107.611,320.883 107.5,321.5C 102.458,322.292 97.4583,323.292 92.5,324.5C 92.5,323.5 92.5,322.5 92.5,321.5C 97.8986,316.382 102.899,310.382 107.5,303.5C 108.912,302.194 110.579,301.36 112.5,301C 111.289,300.107 111.289,299.274 112.5,298.5C 114.071,297.691 115.738,297.357 117.5,297.5C 117.33,296.178 117.663,295.011 118.5,294C 121.047,293.448 123.047,292.114 124.5,290C 125.793,289.51 127.127,289.343 128.5,289.5C 128.5,288.5 128.5,287.5 128.5,286.5C 130.833,286.5 133.167,286.5 135.5,286.5C 136.991,283.909 139.325,282.909 142.5,283.5C 142.5,282.5 142.5,281.5 142.5,280.5C 145.082,280.975 147.082,280.308 148.5,278.5C 150.167,278.5 151.833,278.5 153.5,278.5C 153.5,277.167 153.5,275.833 153.5,274.5C 152.357,271.316 151.691,267.983 151.5,264.5C 153.835,263.587 156.001,262.253 158,260.5C 158.163,262.387 157.329,263.887 155.5,265C 156.389,267.11 157.222,269.61 158,272.5C 160.771,266.963 160.604,261.297 157.5,255.5C 154.911,254.795 152.244,254.795 149.5,255.5C 148.928,253.021 148.928,250.687 149.5,248.5C 148.909,246.734 148.076,245.067 147,243.5C 146.259,242.359 145.425,242.359 144.5,243.5C 143.672,241.081 142.006,239.748 139.5,239.5C 137.962,239.453 136.962,240.12 136.5,241.5C 135.778,240.449 134.778,239.782 133.5,239.5C 132.365,237.787 130.698,237.12 128.5,237.5C 128.784,235.123 128.784,232.956 128.5,231C 127.584,230.626 126.75,230.126 126,229.5C 125.326,230.578 124.326,231.245 123,231.5C 120.442,229.31 117.442,227.976 114,227.5C 113.682,225.939 112.849,224.772 111.5,224C 112.638,222.266 113.138,220.432 113,218.5C 111.152,221.041 108.652,222.041 105.5,221.5C 105.349,218.282 104.516,217.949 103,220.5C 102.985,218.209 102.818,216.042 102.5,214C 100.192,212.064 97.5255,211.231 94.5,211.5C 95.4976,205.833 93.1643,203.499 87.5,204.5C 88.4935,202.146 87.4935,201.146 84.5,201.5C 85.4702,197.069 83.8035,194.735 79.5,194.5C 79.2504,193.078 78.417,192.078 77,191.5C 77.3156,187.863 75.9823,185.196 73,183.5C 71.6796,181.021 70.1796,178.687 68.5,176.5C 69.782,175.292 69.782,173.958 68.5,172.5C 63.1778,168.477 63.8445,167.144 70.5,168.5C 70.3398,166.801 70.5065,165.134 71,163.5C 71.9025,164.701 73.0692,165.535 74.5,166C 80.1569,166.499 85.8236,166.666 91.5,166.5C 91.5,165.5 91.5,164.5 91.5,163.5C 94.9721,162.963 97.8055,163.963 100,166.5C 101.766,164.119 102.932,161.452 103.5,158.5C 105.353,157.24 107.186,157.24 109,158.5C 109.29,160.044 109.956,161.377 111,162.5C 111.77,161.402 112.603,161.402 113.5,162.5C 114.562,164.879 115.895,164.879 117.5,162.5C 120.357,165.692 122.357,169.359 123.5,173.5C 123.47,174.497 123.97,175.164 125,175.5C 126.766,174.767 128.599,174.433 130.5,174.5C 130.629,172.784 130.962,171.117 131.5,169.5C 132.049,167.099 132.882,164.765 134,162.5C 136.954,160.477 139.454,158.144 141.5,155.5C 142.15,155.196 142.817,154.863 143.5,154.5C 144.17,152.709 144.837,151.042 145.5,149.5C 146.637,148.211 147.97,147.211 149.5,146.5 Z"/></g>
<g><path style="opacity:0.969" fill="#7c8c69" d="M 268.5,157.5 C 268.613,160.049 267.946,162.382 266.5,164.5C 265.078,165.547 263.578,165.547 262,164.5C 260.697,164.978 259.531,165.645 258.5,166.5C 259.013,163.291 260.68,162.291 263.5,163.5C 265.219,161.456 266.886,159.456 268.5,157.5 Z"/></g>
<g><path style="opacity:1" fill="#6b7f56" d="M 322.5,160.5 C 321.091,162.417 319.424,164.25 317.5,166C 319.754,167.054 320.087,168.554 318.5,170.5C 315.978,172.856 313.312,175.023 310.5,177C 312.615,177.424 313.448,178.591 313,180.5C 310.108,183.057 306.941,185.224 303.5,187C 306.342,189.405 306.009,191.238 302.5,192.5C 301.61,190.218 301.444,187.885 302,185.5C 304.055,184.07 306.221,182.737 308.5,181.5C 308.429,176.918 310.429,173.751 314.5,172C 315.426,169.624 315.426,166.957 314.5,164C 316.569,161.466 319.235,160.299 322.5,160.5 Z"/></g>
<g><path style="opacity:1" fill="#5b733e" d="M 213.5,149.5 C 213.5,150.5 213.5,151.5 213.5,152.5C 214.833,152.5 216.167,152.5 217.5,152.5C 224.428,154.665 229.428,159.165 232.5,166C 238.911,167.132 244.411,169.966 249,174.5C 250.251,171.184 251.918,170.85 254,173.5C 255.419,171.007 256.919,168.674 258.5,166.5C 258.747,171.621 256.414,174.455 251.5,175C 250.24,177.301 248.907,179.468 247.5,181.5C 246.952,179.468 245.619,178.468 243.5,178.5C 241.847,178.34 240.514,177.674 239.5,176.5C 239.047,175.542 238.381,174.708 237.5,174C 234.183,173.502 230.85,173.335 227.5,173.5C 227.628,175.655 227.128,177.655 226,179.5C 226.093,175.174 226.093,170.841 226,166.5C 225.568,163.928 224.068,162.594 221.5,162.5C 220.833,162.5 220.167,162.5 219.5,162.5C 219.5,161.833 219.167,161.5 218.5,161.5C 217.409,159.466 215.743,158.132 213.5,157.5C 212.553,155.242 213.553,154.075 216.5,154C 214.444,153.689 212.444,153.189 210.5,152.5C 208.821,154.104 206.821,154.771 204.5,154.5C 204.519,152.94 204.852,151.44 205.5,150C 203.997,148.079 203.331,145.912 203.5,143.5C 202.448,143.649 201.448,143.483 200.5,143C 201.931,142.535 203.097,141.701 204,140.5C 206.768,141.208 207.601,142.708 206.5,145C 208.107,146.049 208.773,147.549 208.5,149.5C 210.167,149.5 211.833,149.5 213.5,149.5 Z"/></g>
<g><path style="opacity:1" fill="#80916f" d="M 131.5,169.5 C 130.962,171.117 130.629,172.784 130.5,174.5C 128.599,174.433 126.766,174.767 125,175.5C 123.97,175.164 123.47,174.497 123.5,173.5C 124.756,173.096 125.923,172.429 127,171.5C 127.945,171.905 128.612,172.572 129,173.5C 129.2,171.68 130.034,170.347 131.5,169.5 Z"/></g>
<g><path style="opacity:1" fill="#d0b363" d="M 218.5,161.5 C 219.167,161.5 219.5,161.833 219.5,162.5C 214.797,162.437 210.13,162.771 205.5,163.5C 205.665,167.182 205.499,170.848 205,174.5C 203.556,177.055 202.389,179.721 201.5,182.5C 203.27,184.713 203.603,187.046 202.5,189.5C 201.522,189.023 200.689,188.357 200,187.5C 197.759,192.946 196.592,198.612 196.5,204.5C 198.842,204.504 200.842,205.337 202.5,207C 205.817,207.498 209.15,207.665 212.5,207.5C 206.94,210.292 201.44,209.958 196,206.5C 195.042,204.801 194.542,202.967 194.5,201C 197.415,187.27 200.915,173.77 205,160.5C 209.605,159.103 214.105,159.437 218.5,161.5 Z"/></g>
<g><path style="opacity:1" fill="#dab462" d="M 153.5,199.5 C 147.385,200.137 146.719,201.471 151.5,203.5C 149.874,204.99 148.208,206.49 146.5,208C 154.687,204.35 162.687,205.017 170.5,210C 171.381,210.708 172.047,211.542 172.5,212.5C 170.742,212.123 169.075,211.456 167.5,210.5C 165.172,212.574 165.839,213.574 169.5,213.5C 169.719,214.675 169.386,215.675 168.5,216.5C 162.687,213.631 157.021,213.965 151.5,217.5C 149.518,216.03 147.852,216.364 146.5,218.5C 143.437,214.537 140.77,214.703 138.5,219C 141.663,221.753 142.496,224.92 141,228.5C 140.044,227.421 139.211,226.255 138.5,225C 137.517,224.409 136.85,224.743 136.5,226C 137.713,227.63 138.546,229.464 139,231.5C 141.841,231.659 144.675,231.659 147.5,231.5C 145.102,233.621 144.935,235.955 147,238.5C 148.261,235.18 149.928,234.846 152,237.5C 152.507,238.996 152.007,240.163 150.5,241C 154.279,243.947 156.612,247.781 157.5,252.5C 149.924,244.422 142.09,236.422 134,228.5C 129.532,224.04 125.865,219.04 123,213.5C 122.262,209.739 122.595,206.072 124,202.5C 129,192.315 133.5,181.981 137.5,171.5C 138.81,169.565 140.143,167.565 141.5,165.5C 142.607,164.978 143.774,164.645 145,164.5C 156.4,167.581 167.733,170.914 179,174.5C 182.637,182.045 180.47,186.878 172.5,189C 164.106,190.973 156.772,189.139 150.5,183.5C 149.592,184.79 149.759,186.123 151,187.5C 152.618,189.234 154.118,191.067 155.5,193C 154.391,195.047 153.724,197.213 153.5,199.5 Z"/></g>
<g><path style="opacity:1" fill="#ddb461" d="M 238.5,201.5 C 237.786,205.933 235.786,209.6 232.5,212.5C 229.482,212.665 226.482,212.498 223.5,212C 222.333,211.5 221.5,210.667 221,209.5C 221.072,202.974 222.238,196.641 224.5,190.5C 224.833,189.833 225.167,189.167 225.5,188.5C 228.341,184.819 231.008,180.986 233.5,177C 236.733,177.107 239.733,178.107 242.5,180C 243.809,181.751 243.475,183.251 241.5,184.5C 242.57,188.221 241.737,191.554 239,194.5C 238.503,196.81 238.337,199.143 238.5,201.5 Z"/></g>
<g><path style="opacity:1" fill="#6a7b58" d="M 61.5,166.5 C 62.0899,167.766 62.5899,169.099 63,170.5C 65.7994,171.773 67.6328,173.773 68.5,176.5C 70.1796,178.687 71.6796,181.021 73,183.5C 75.9823,185.196 77.3156,187.863 77,191.5C 78.417,192.078 79.2504,193.078 79.5,194.5C 76.6267,193.75 74.6267,192.083 73.5,189.5C 73.8178,188.353 74.4844,187.519 75.5,187C 71.76,185.71 68.5933,183.543 66,180.5C 65.4926,179.004 65.9926,177.837 67.5,177C 64.5728,174.618 61.7395,172.118 59,169.5C 58.5172,168.552 58.3505,167.552 58.5,166.5C 59.5,166.5 60.5,166.5 61.5,166.5 Z"/></g>
<g><path style="opacity:1" fill="#647232" d="M 182.5,147.5 C 179.8,149.046 177.967,151.379 177,154.5C 176.58,158.952 175.747,163.285 174.5,167.5C 182.338,167.672 186.005,171.672 185.5,179.5C 186.038,187.133 182.705,191.8 175.5,193.5C 176.105,191.974 177.271,190.974 179,190.5C 179.591,189.517 179.257,188.85 178,188.5C 171.413,191.599 164.58,192.266 157.5,190.5C 157.657,191.873 157.49,193.207 157,194.5C 156.263,196.596 155.097,198.263 153.5,199.5C 153.724,197.213 154.391,195.047 155.5,193C 154.118,191.067 152.618,189.234 151,187.5C 149.759,186.123 149.592,184.79 150.5,183.5C 156.772,189.139 164.106,190.973 172.5,189C 180.47,186.878 182.637,182.045 179,174.5C 167.733,170.914 156.4,167.581 145,164.5C 143.774,164.645 142.607,164.978 141.5,165.5C 140.143,167.565 138.81,169.565 137.5,171.5C 137.665,169.173 138.331,167.007 139.5,165C 143.716,163.796 148.049,163.13 152.5,163C 150.676,162.34 149.343,161.173 148.5,159.5C 155.809,161.628 163.142,163.628 170.5,165.5C 170.575,162.794 170.908,160.127 171.5,157.5C 172.365,154.9 173.032,152.233 173.5,149.5C 173.48,148.274 173.147,147.274 172.5,146.5C 167.685,142.377 162.018,140.877 155.5,142C 154.667,142.833 153.833,143.667 153,144.5C 151.766,148.715 150.266,152.715 148.5,156.5C 148.616,153.14 148.949,149.807 149.5,146.5C 150.126,144.374 151.459,142.707 153.5,141.5C 159.137,140.337 164.804,140.17 170.5,141C 173.651,144.135 175.317,147.968 175.5,152.5C 176.852,151.482 177.852,150.149 178.5,148.5C 179.736,147.754 181.07,147.421 182.5,147.5 Z"/></g>
<g><path style="opacity:1" fill="#cfb365" d="M 239.5,176.5 C 240.514,177.674 241.847,178.34 243.5,178.5C 245.463,181.518 245.963,184.851 245,188.5C 242.787,192.925 240.621,197.259 238.5,201.5C 238.337,199.143 238.503,196.81 239,194.5C 241.737,191.554 242.57,188.221 241.5,184.5C 243.475,183.251 243.809,181.751 242.5,180C 239.733,178.107 236.733,177.107 233.5,177C 231.008,180.986 228.341,184.819 225.5,188.5C 226.443,183.895 227.777,179.395 229.5,175C 233.103,174.157 236.436,174.657 239.5,176.5 Z"/></g>
<g><path style="opacity:0.929" fill="#6f815c" d="M 302.5,192.5 C 299.985,194.417 297.319,196.25 294.5,198C 295.448,198.483 296.448,198.649 297.5,198.5C 297.001,201.264 295.335,202.931 292.5,203.5C 291.773,196.544 295.107,192.878 302.5,192.5 Z"/></g>
<g><path style="opacity:1" fill="#71825d" d="M 79.5,194.5 C 83.8035,194.735 85.4702,197.069 84.5,201.5C 87.4935,201.146 88.4935,202.146 87.5,204.5C 84.8554,203.509 82.522,202.009 80.5,200C 81.3279,199.085 82.3279,198.419 83.5,198C 82.2695,196.595 80.9361,195.429 79.5,194.5 Z"/></g>
<g><path style="opacity:1" fill="#5d7234" d="M 200.5,154.5 C 201.117,154.611 201.617,154.944 202,155.5C 202.333,157.5 202.667,159.5 203,161.5C 203.483,160.552 203.649,159.552 203.5,158.5C 206.786,157.793 210.119,157.46 213.5,157.5C 215.743,158.132 217.409,159.466 218.5,161.5C 214.105,159.437 209.605,159.103 205,160.5C 200.915,173.77 197.415,187.27 194.5,201C 194.542,202.967 195.042,204.801 196,206.5C 201.44,209.958 206.94,210.292 212.5,207.5C 213.558,206.4 214.392,205.066 215,203.5C 218.145,193.067 221.478,182.734 225,172.5C 225.818,168.469 224.651,165.136 221.5,162.5C 224.068,162.594 225.568,163.928 226,166.5C 226.093,170.841 226.093,175.174 226,179.5C 227.128,177.655 227.628,175.655 227.5,173.5C 230.85,173.335 234.183,173.502 237.5,174C 238.381,174.708 239.047,175.542 239.5,176.5C 236.436,174.657 233.103,174.157 229.5,175C 227.777,179.395 226.443,183.895 225.5,188.5C 225.167,189.167 224.833,189.833 224.5,190.5C 220.954,196.646 219.12,203.313 219,210.5C 223.026,216.081 227.526,216.748 232.5,212.5C 235.786,209.6 237.786,205.933 238.5,201.5C 240.621,197.259 242.787,192.925 245,188.5C 245.963,184.851 245.463,181.518 243.5,178.5C 245.619,178.468 246.952,179.468 247.5,181.5C 247.699,184.941 247.199,188.274 246,191.5C 243.057,196.237 240.557,201.237 238.5,206.5C 239.695,210.264 241.361,213.764 243.5,217C 243.022,218.303 242.355,219.469 241.5,220.5C 240.347,227.648 239.513,234.981 239,242.5C 238.623,243.942 237.79,244.942 236.5,245.5C 237.779,237.879 238.779,230.212 239.5,222.5C 239.167,220.5 238.833,218.5 238.5,216.5C 233.017,222.624 226.684,223.791 219.5,220C 217.946,218.108 216.112,216.608 214,215.5C 210.545,216.55 207.045,216.717 203.5,216C 198.452,214.627 193.452,213.46 188.5,212.5C 190.974,219.259 193.641,225.926 196.5,232.5C 196.662,234.527 196.495,236.527 196,238.5C 190.589,228 183.089,219.333 173.5,212.5C 173.167,212.5 172.833,212.5 172.5,212.5C 172.047,211.542 171.381,210.708 170.5,210C 162.687,205.017 154.687,204.35 146.5,208C 148.208,206.49 149.874,204.99 151.5,203.5C 146.719,201.471 147.385,200.137 153.5,199.5C 155.097,198.263 156.263,196.596 157,194.5C 157.49,193.207 157.657,191.873 157.5,190.5C 164.58,192.266 171.413,191.599 178,188.5C 179.257,188.85 179.591,189.517 179,190.5C 177.271,190.974 176.105,191.974 175.5,193.5C 173.283,194.369 170.95,194.702 168.5,194.5C 168.297,196.39 168.963,197.89 170.5,199C 176.456,202.851 182.623,203.351 189,200.5C 193.777,185.392 197.61,170.059 200.5,154.5 Z"/></g>
<g><path style="opacity:1" fill="#deb461" d="M 219.5,162.5 C 220.167,162.5 220.833,162.5 221.5,162.5C 224.651,165.136 225.818,168.469 225,172.5C 221.478,182.734 218.145,193.067 215,203.5C 214.392,205.066 213.558,206.4 212.5,207.5C 209.15,207.665 205.817,207.498 202.5,207C 200.842,205.337 198.842,204.504 196.5,204.5C 196.592,198.612 197.759,192.946 200,187.5C 200.689,188.357 201.522,189.023 202.5,189.5C 203.603,187.046 203.27,184.713 201.5,182.5C 202.389,179.721 203.556,177.055 205,174.5C 205.499,170.848 205.665,167.182 205.5,163.5C 210.13,162.771 214.797,162.437 219.5,162.5 Z"/></g>
<g><path style="opacity:1" fill="#c5ae63" d="M 224.5,190.5 C 222.238,196.641 221.072,202.974 221,209.5C 221.5,210.667 222.333,211.5 223.5,212C 226.482,212.498 229.482,212.665 232.5,212.5C 227.526,216.748 223.026,216.081 219,210.5C 219.12,203.313 220.954,196.646 224.5,190.5 Z"/></g>
<g><path style="opacity:0.98" fill="#7f906b" d="M 286.5,206.5 C 287.028,207.847 287.195,209.181 287,210.5C 284.174,212.829 281.008,214.496 277.5,215.5C 278.646,213.333 280.479,212 283,211.5C 283.464,210.906 283.631,210.239 283.5,209.5C 284.1,208.1 285.1,207.1 286.5,206.5 Z"/></g>
<g><path style="opacity:1" fill="#dfb663" d="M 172.5,212.5 C 172.833,212.5 173.167,212.5 173.5,212.5C 174.038,214.117 174.371,215.784 174.5,217.5C 175.873,217.343 177.207,217.51 178.5,218C 180.01,220.009 181.677,221.842 183.5,223.5C 184.944,225.608 185.61,227.941 185.5,230.5C 186.822,230.33 187.989,230.663 189,231.5C 189.438,234.376 190.438,237.043 192,239.5C 194.023,241.54 195.69,243.873 197,246.5C 198.131,245.396 198.965,245.729 199.5,247.5C 196.696,248.105 194.029,248.938 191.5,250C 192.793,250.49 194.127,250.657 195.5,250.5C 195.5,251.5 195.5,252.5 195.5,253.5C 192.318,252.174 188.985,251.674 185.5,252C 183.911,253.745 181.911,254.912 179.5,255.5C 180.729,256.281 182.062,256.781 183.5,257C 179.565,257.084 175.898,258.084 172.5,260C 172.018,261.008 171.852,262.175 172,263.5C 171.275,262.941 170.442,262.608 169.5,262.5C 167.944,263.547 166.277,264.214 164.5,264.5C 163.567,260.532 162.567,256.532 161.5,252.5C 160.167,252.5 158.833,252.5 157.5,252.5C 156.612,247.781 154.279,243.947 150.5,241C 152.007,240.163 152.507,238.996 152,237.5C 149.928,234.846 148.261,235.18 147,238.5C 144.935,235.955 145.102,233.621 147.5,231.5C 144.675,231.659 141.841,231.659 139,231.5C 138.546,229.464 137.713,227.63 136.5,226C 136.85,224.743 137.517,224.409 138.5,225C 139.211,226.255 140.044,227.421 141,228.5C 142.496,224.92 141.663,221.753 138.5,219C 140.77,214.703 143.437,214.537 146.5,218.5C 147.852,216.364 149.518,216.03 151.5,217.5C 157.021,213.965 162.687,213.631 168.5,216.5C 169.386,215.675 169.719,214.675 169.5,213.5C 165.839,213.574 165.172,212.574 167.5,210.5C 169.075,211.456 170.742,212.123 172.5,212.5 Z"/></g>
<g><path style="opacity:1" fill="#ddb562" d="M 236.5,245.5 C 233.878,249.457 230.878,253.124 227.5,256.5C 224.626,257.844 221.626,259.01 218.5,260C 217.333,261.167 216.167,262.333 215,263.5C 211.496,261.99 208.996,259.49 207.5,256C 207.833,255.667 208.167,255.333 208.5,255C 205.064,254.982 201.731,254.815 198.5,254.5C 200.978,252.83 203.645,251.163 206.5,249.5C 205.311,248.571 203.978,248.238 202.5,248.5C 202.297,246.61 202.963,245.11 204.5,244C 201.625,241.068 199.792,237.568 199,233.5C 198.329,232.748 197.496,232.414 196.5,232.5C 193.641,225.926 190.974,219.259 188.5,212.5C 193.452,213.46 198.452,214.627 203.5,216C 207.045,216.717 210.545,216.55 214,215.5C 216.112,216.608 217.946,218.108 219.5,220C 226.684,223.791 233.017,222.624 238.5,216.5C 238.833,218.5 239.167,220.5 239.5,222.5C 238.779,230.212 237.779,237.879 236.5,245.5 Z"/></g>
<g><path style="opacity:0.99" fill="#667a4f" d="M 87.5,204.5 C 93.1643,203.499 95.4976,205.833 94.5,211.5C 97.5255,211.231 100.192,212.064 102.5,214C 102.818,216.042 102.985,218.209 103,220.5C 104.516,217.949 105.349,218.282 105.5,221.5C 108.652,222.041 111.152,221.041 113,218.5C 113.138,220.432 112.638,222.266 111.5,224C 112.849,224.772 113.682,225.939 114,227.5C 117.442,227.976 120.442,229.31 123,231.5C 124.326,231.245 125.326,230.578 126,229.5C 126.75,230.126 127.584,230.626 128.5,231C 128.784,232.956 128.784,235.123 128.5,237.5C 130.698,237.12 132.365,237.787 133.5,239.5C 131.833,239.5 130.167,239.5 128.5,239.5C 126.194,239.007 123.861,238.674 121.5,238.5C 121.561,236.408 122.561,234.908 124.5,234C 119.172,232.923 114.172,231.09 109.5,228.5C 109.977,227.522 110.643,226.689 111.5,226C 107.372,224.102 103.372,221.935 99.5,219.5C 100.167,218.5 100.833,217.5 101.5,216.5C 97.6641,214.416 93.9974,212.083 90.5,209.5C 90.9767,208.522 91.6433,207.689 92.5,207C 90.5087,206.626 88.842,205.793 87.5,204.5 Z"/></g>
<g><path style="opacity:0.957" fill="#758461" d="M 277.5,215.5 C 277.389,216.117 277.056,216.617 276.5,217C 277.672,217.419 278.672,218.085 279.5,219C 276.381,221.893 272.714,223.726 268.5,224.5C 268.331,226.117 267.997,227.784 267.5,229.5C 265.677,230.747 263.677,231.414 261.5,231.5C 261.787,229.879 262.787,228.879 264.5,228.5C 265.466,226.604 265.799,224.604 265.5,222.5C 267.857,222.663 270.19,222.497 272.5,222C 274.388,219.867 276.055,217.701 277.5,215.5 Z"/></g>
<g><path style="opacity:0.051" fill="#c3c8b2" d="M 297.5,235.5 C 297.917,234.876 298.584,234.543 299.5,234.5C 300.867,235.225 302.2,235.892 303.5,236.5C 303.265,237.097 302.765,237.43 302,237.5C 300.7,236.293 299.2,235.626 297.5,235.5 Z"/></g>
<g><path style="opacity:0.086" fill="#a5b198" d="M 312.5,236.5 C 309.877,235.218 306.877,235.218 303.5,236.5C 306.484,234.007 309.484,234.007 312.5,236.5 Z"/></g>
<g><path style="opacity:0.035" fill="#d6d9be" d="M 53.5,236.5 C 51.1137,236.259 49.1137,236.925 47.5,238.5C 49.1137,236.925 51.1137,236.259 53.5,236.5 Z"/></g>
<g><path style="opacity:0.996" fill="#93a17f" d="M 257.5,232.5 C 256.737,233.268 255.737,233.768 254.5,234C 256.439,234.908 257.439,236.408 257.5,238.5C 256.5,238.5 255.5,238.5 254.5,238.5C 257.258,237.033 256.925,236.367 253.5,236.5C 253.5,235.167 253.5,233.833 253.5,232.5C 254.833,232.5 256.167,232.5 257.5,232.5 Z"/></g>
<g><path style="opacity:0.951" fill="#788862" d="M 94.5,238.5 C 88.819,238.365 83.1523,238.032 77.5,237.5C 77.281,236.325 77.6143,235.325 78.5,234.5C 81.1668,235.123 83.6668,236.123 86,237.5C 88.9906,235.107 91.8239,235.44 94.5,238.5 Z"/></g>
<g><path style="opacity:1" fill="#547137" d="M 114.5,242.5 C 115.156,241.722 115.989,241.056 117,240.5C 119.951,241.799 122.618,243.465 125,245.5C 125.674,244.422 126.674,243.755 128,243.5C 130.307,244.648 132.474,245.982 134.5,247.5C 135.79,249.987 136.79,249.653 137.5,246.5C 138.183,246.863 138.85,247.196 139.5,247.5C 140.167,247.5 140.5,247.167 140.5,246.5C 139.391,245.71 138.058,245.21 136.5,245C 137.171,244.014 137.171,242.847 136.5,241.5C 136.962,240.12 137.962,239.453 139.5,239.5C 142.006,239.748 143.672,241.081 144.5,243.5C 145.425,242.359 146.259,242.359 147,243.5C 148.076,245.067 148.909,246.734 149.5,248.5C 148.928,250.687 148.928,253.021 149.5,255.5C 152.244,254.795 154.911,254.795 157.5,255.5C 160.604,261.297 160.771,266.963 158,272.5C 157.222,269.61 156.389,267.11 155.5,265C 157.329,263.887 158.163,262.387 158,260.5C 156.001,262.253 153.835,263.587 151.5,264.5C 151.691,267.983 152.357,271.316 153.5,274.5C 152.508,274.328 151.842,274.662 151.5,275.5C 150.833,275.833 150.167,276.167 149.5,276.5C 148.508,276.328 147.842,276.662 147.5,277.5C 146.833,277.5 146.167,277.5 145.5,277.5C 144.2,276.892 142.867,276.225 141.5,275.5C 137.521,277.204 134.021,276.537 131,273.5C 130.535,274.931 129.701,276.097 128.5,277C 126.209,277.225 124.209,277.392 122.5,277.5C 121.833,277.5 121.167,277.5 120.5,277.5C 116.544,276.947 116.544,276.114 120.5,275C 118.939,274.682 117.772,273.849 117,272.5C 114.689,273.487 112.355,274.487 110,275.5C 103.926,274.035 97.7593,273.202 91.5,273C 87.8219,271.386 84.3219,269.552 81,267.5C 77.4936,266.22 73.9936,266.22 70.5,267.5C 67.978,266.238 65.3113,265.571 62.5,265.5C 62.5,263.833 62.5,262.167 62.5,260.5C 59.4682,260.495 56.4682,260.162 53.5,259.5C 51.9704,259.36 50.9704,258.693 50.5,257.5C 50.9528,256.542 51.6195,255.708 52.5,255C 54.9005,254.814 57.2338,254.314 59.5,253.5C 58.3717,252.738 57.2051,252.071 56,251.5C 54.3547,251.693 52.5213,251.86 50.5,252C 47.635,254.286 44.3017,255.12 40.5,254.5C 39.1459,248.966 40.9793,247.966 46,251.5C 48.2768,248.301 49.1102,244.635 48.5,240.5C 51.9279,239.526 55.4279,238.859 59,238.5C 63.5044,239.768 68.0044,239.768 72.5,238.5C 76.5095,237.843 78.1762,239.51 77.5,243.5C 73.8212,243.276 70.1545,242.942 66.5,242.5C 66.33,243.822 66.6634,244.989 67.5,246C 71.3495,244.836 75.3495,244.502 79.5,245C 81.8609,245.197 83.5276,246.364 84.5,248.5C 86.9356,246.447 86.6023,244.614 83.5,243C 87.4194,239.406 91.4194,239.073 95.5,242C 94.1667,243.333 92.8333,244.667 91.5,246C 93.5992,248.57 95.9325,248.904 98.5,247C 98.1667,246 97.8333,245 97.5,244C 98.6667,243.5 99.5,242.667 100,241.5C 101.307,242.772 102.807,243.772 104.5,244.5C 103.174,244.205 101.841,244.705 100.5,246C 101,246.5 101.5,247 102,247.5C 103.989,247.679 105.989,247.012 108,245.5C 109.935,246.343 111.769,246.343 113.5,245.5C 110.771,243.633 111.104,242.633 114.5,242.5 Z"/></g>
<g><path style="opacity:1" fill="#8a9c75" d="M 287.5,236.5 C 289.546,235.035 291.38,235.368 293,237.5C 293.816,236.177 294.983,235.511 296.5,235.5C 295.833,236.5 295.167,237.5 294.5,238.5C 294.565,238.938 294.399,239.272 294,239.5C 292.254,237.543 290.088,236.543 287.5,236.5 Z"/></g>
<g><path style="opacity:1" fill="#557137" d="M 241.5,220.5 C 242.935,221.824 243.935,223.491 244.5,225.5C 245.325,226.386 246.325,226.719 247.5,226.5C 249.471,229.365 250.137,232.365 249.5,235.5C 250.959,235.433 252.292,235.766 253.5,236.5C 256.925,236.367 257.258,237.033 254.5,238.5C 252.883,239.038 251.216,239.371 249.5,239.5C 246.762,240.035 244.928,239.035 244,236.5C 242.871,240.431 242.371,244.264 242.5,248C 243.437,248.692 244.103,248.525 244.5,247.5C 246.812,245.364 249.312,243.364 252,241.5C 252.667,242.833 253.333,244.167 254,245.5C 256.042,242.961 258.542,240.961 261.5,239.5C 262.251,240.376 262.751,241.376 263,242.5C 265.675,240.554 268.508,238.887 271.5,237.5C 272.251,238.376 272.751,239.376 273,240.5C 273.671,239.748 274.504,239.414 275.5,239.5C 279.5,239.5 283.5,239.5 287.5,239.5C 287.5,238.5 287.5,237.5 287.5,236.5C 290.088,236.543 292.254,237.543 294,239.5C 294.399,239.272 294.565,238.938 294.5,238.5C 302.203,238.768 309.87,238.435 317.5,237.5C 332.216,242.206 347.216,243.706 362.5,242C 359.458,244.875 355.791,246.208 351.5,246C 350.244,246.417 349.577,247.25 349.5,248.5C 349.5,249.5 349.5,250.5 349.5,251.5C 348.167,251.5 346.833,251.5 345.5,251.5C 343.194,251.007 340.861,250.674 338.5,250.5C 338.5,252.167 338.5,253.833 338.5,255.5C 336.62,255.229 335.287,255.896 334.5,257.5C 332.396,257.201 330.396,257.534 328.5,258.5C 328.624,259.107 328.957,259.44 329.5,259.5C 329.5,259.833 329.5,260.167 329.5,260.5C 325.012,258.865 321.012,259.532 317.5,262.5C 316.571,263.689 316.238,265.022 316.5,266.5C 311.293,268.103 305.959,269.437 300.5,270.5C 296.746,271.686 292.913,272.686 289,273.5C 288.228,273.355 287.561,273.022 287,272.5C 284.039,273.19 281.206,274.19 278.5,275.5C 275.719,275.099 274.719,273.765 275.5,271.5C 271.083,270.13 266.75,270.297 262.5,272C 264.473,272.495 266.473,272.662 268.5,272.5C 268.67,273.822 268.337,274.989 267.5,276C 263.848,276.499 260.182,276.665 256.5,276.5C 255.167,276.833 255.167,277.167 256.5,277.5C 256.209,278.649 255.376,279.316 254,279.5C 251.221,278.776 248.554,277.776 246,276.5C 245.768,277.737 245.268,278.737 244.5,279.5C 243.486,278.326 242.153,277.66 240.5,277.5C 238.61,277.703 237.11,277.037 236,275.5C 236.857,278.536 235.69,279.202 232.5,277.5C 231.614,278.325 231.281,279.325 231.5,280.5C 233.415,280.216 235.081,280.549 236.5,281.5C 235.957,281.56 235.624,281.893 235.5,282.5C 237.743,283.474 240.076,283.808 242.5,283.5C 243.167,284.5 243.833,285.5 244.5,286.5C 247.189,288.834 249.856,291.167 252.5,293.5C 250.915,295.087 249.248,295.92 247.5,296C 248.766,296.309 249.933,296.809 251,297.5C 253.39,296.276 255.89,295.776 258.5,296C 257.773,297.399 257.273,298.899 257,300.5C 254.232,301.208 253.399,302.708 254.5,305C 257.631,303.722 260.964,302.555 264.5,301.5C 265.415,302.328 266.081,303.328 266.5,304.5C 264.639,305.528 263.305,307.028 262.5,309C 258.389,307.729 255.555,309.229 254,313.5C 251.955,311.957 250.455,312.29 249.5,314.5C 249.44,315.043 249.107,315.376 248.5,315.5C 246.705,313.297 244.371,312.131 241.5,312C 240.429,307.138 237.429,305.305 232.5,306.5C 232.481,308.06 232.148,309.56 231.5,311C 232.365,318.475 233.032,325.975 233.5,333.5C 233.628,335.655 233.128,337.655 232,339.5C 231.242,337.231 231.409,335.064 232.5,333C 230.872,329.397 230.038,325.563 230,321.5C 229.059,319.273 227.892,317.273 226.5,315.5C 224.684,297.404 224.017,279.404 224.5,261.5C 227.263,261.256 229.429,259.923 231,257.5C 233.64,253.885 235.474,249.885 236.5,245.5C 237.79,244.942 238.623,243.942 239,242.5C 239.513,234.981 240.347,227.648 241.5,220.5 Z"/></g>
<g><path style="opacity:1" fill="#758860" d="M 287.5,236.5 C 287.5,237.5 287.5,238.5 287.5,239.5C 283.5,239.5 279.5,239.5 275.5,239.5C 276.871,237.859 278.704,236.859 281,236.5C 282.86,238.349 285.026,238.349 287.5,236.5 Z"/></g>
<g><path style="opacity:1" fill="#788d63" d="M 249.5,239.5 C 248.432,240.434 247.099,240.768 245.5,240.5C 245.326,242.861 244.993,245.194 244.5,247.5C 244.103,248.525 243.437,248.692 242.5,248C 242.371,244.264 242.871,240.431 244,236.5C 244.928,239.035 246.762,240.035 249.5,239.5 Z"/></g>
<g><path style="opacity:0.516" fill="#73835f" d="M 46.5,238.5 C 39.1435,240.606 31.8102,241.273 24.5,240.5C 26.5695,240.551 28.4029,239.885 30,238.5C 35.1199,238.074 40.6199,238.074 46.5,238.5 Z"/></g>
<g><path style="opacity:0.212" fill="#cad3c2" d="M 108.5,238.5 C 107.069,238.881 106.236,239.881 106,241.5C 105.283,240.956 104.783,240.289 104.5,239.5C 105.156,238.722 105.989,238.056 107,237.5C 107.765,237.57 108.265,237.903 108.5,238.5 Z"/></g>
<g><path style="opacity:1" fill="#59733e" d="M 77.5,237.5 C 83.1523,238.032 88.819,238.365 94.5,238.5C 95.1556,237.722 95.9889,237.056 97,236.5C 99.6774,237.222 102.177,238.222 104.5,239.5C 104.783,240.289 105.283,240.956 106,241.5C 106.236,239.881 107.069,238.881 108.5,238.5C 111.147,238.929 113.147,240.262 114.5,242.5C 111.104,242.633 110.771,243.633 113.5,245.5C 111.769,246.343 109.935,246.343 108,245.5C 105.989,247.012 103.989,247.679 102,247.5C 101.5,247 101,246.5 100.5,246C 101.841,244.705 103.174,244.205 104.5,244.5C 102.807,243.772 101.307,242.772 100,241.5C 99.5,242.667 98.6667,243.5 97.5,244C 97.8333,245 98.1667,246 98.5,247C 95.9325,248.904 93.5992,248.57 91.5,246C 92.8333,244.667 94.1667,243.333 95.5,242C 91.4194,239.073 87.4194,239.406 83.5,243C 86.6023,244.614 86.9356,246.447 84.5,248.5C 83.5276,246.364 81.8609,245.197 79.5,245C 75.3495,244.502 71.3495,244.836 67.5,246C 66.6634,244.989 66.33,243.822 66.5,242.5C 70.1545,242.942 73.8212,243.276 77.5,243.5C 78.1762,239.51 76.5095,237.843 72.5,238.5C 68.0044,239.768 63.5044,239.768 59,238.5C 55.4279,238.859 51.9279,239.526 48.5,240.5C 49.1102,244.635 48.2768,248.301 46,251.5C 40.9793,247.966 39.1459,248.966 40.5,254.5C 44.3017,255.12 47.635,254.286 50.5,252C 52.5213,251.86 54.3547,251.693 56,251.5C 57.2051,252.071 58.3717,252.738 59.5,253.5C 57.2338,254.314 54.9005,254.814 52.5,255C 51.6195,255.708 50.9528,256.542 50.5,257.5C 46.1259,257.498 42.1259,256.498 38.5,254.5C 39.8333,254.167 39.8333,253.833 38.5,253.5C 38.5858,252.504 38.2524,251.671 37.5,251C 35.0261,250.887 33.0261,249.887 31.5,248C 24.35,245.59 17.1834,243.424 10,241.5C 9.32924,242.252 8.4959,242.586 7.5,242.5C 6.5,242.5 5.5,242.5 4.5,242.5C 4.5,241.5 4.5,240.5 4.5,239.5C 11.3543,239.176 18.021,239.509 24.5,240.5C 31.8102,241.273 39.1435,240.606 46.5,238.5C 46.8333,238.5 47.1667,238.5 47.5,238.5C 49.1137,236.925 51.1137,236.259 53.5,236.5C 54.6948,236.678 55.8615,237.011 57,237.5C 57.2526,236.465 58.086,235.465 59.5,234.5C 62.2765,234.946 64.7765,235.946 67,237.5C 67.4828,236.552 67.6495,235.552 67.5,234.5C 71.1758,234.583 74.5092,235.583 77.5,237.5 Z"/></g>
<g><path style="opacity:0.91" fill="#899a75" d="M 128.5,239.5 C 130.167,239.5 131.833,239.5 133.5,239.5C 134.778,239.782 135.778,240.449 136.5,241.5C 137.171,242.847 137.171,244.014 136.5,245C 138.058,245.21 139.391,245.71 140.5,246.5C 139.833,246.5 139.5,246.833 139.5,247.5C 138.85,247.196 138.183,246.863 137.5,246.5C 136.79,249.653 135.79,249.987 134.5,247.5C 133.954,245.764 133.954,243.764 134.5,241.5C 132.369,240.831 130.369,240.165 128.5,239.5 Z"/></g>
<g><path style="opacity:0.98" fill="#6f815a" d="M 349.5,248.5 C 349.577,247.25 350.244,246.417 351.5,246C 355.791,246.208 359.458,244.875 362.5,242C 347.216,243.706 332.216,242.206 317.5,237.5C 309.87,238.435 302.203,238.768 294.5,238.5C 295.167,237.5 295.833,236.5 296.5,235.5C 296.833,235.5 297.167,235.5 297.5,235.5C 299.2,235.626 300.7,236.293 302,237.5C 302.765,237.43 303.265,237.097 303.5,236.5C 306.877,235.218 309.877,235.218 312.5,236.5C 314.961,235.469 317.627,234.802 320.5,234.5C 320.281,235.675 320.614,236.675 321.5,237.5C 323.957,235.775 326.623,235.275 329.5,236C 329.93,236.92 330.264,237.753 330.5,238.5C 336.332,238.416 342.165,238.416 348,238.5C 349.326,238.755 350.326,239.422 351,240.5C 358.747,239.518 366.58,239.185 374.5,239.5C 374.5,240.5 374.5,241.5 374.5,242.5C 366.429,245.251 358.096,247.251 349.5,248.5 Z"/></g>
<g><path style="opacity:1" fill="#70845a" d="M 38.5,253.5 C 35.302,252.213 31.9686,251.547 28.5,251.5C 28.5,250.5 28.5,249.5 28.5,248.5C 21.0885,247.494 14.0885,245.494 7.5,242.5C 8.4959,242.586 9.32924,242.252 10,241.5C 17.1834,243.424 24.35,245.59 31.5,248C 33.0261,249.887 35.0261,250.887 37.5,251C 38.2524,251.671 38.5858,252.504 38.5,253.5 Z"/></g>
<g><path style="opacity:1" fill="#7d906a" d="M 345.5,251.5 C 343.723,252.6 341.723,253.434 339.5,254C 340.711,254.893 340.711,255.726 339.5,256.5C 337.929,257.309 336.262,257.643 334.5,257.5C 335.287,255.896 336.62,255.229 338.5,255.5C 338.5,253.833 338.5,252.167 338.5,250.5C 340.861,250.674 343.194,251.007 345.5,251.5 Z"/></g>
<g><path style="opacity:0.149" fill="#abbd9a" d="M 334.5,257.5 C 332.833,258.167 331.167,258.833 329.5,259.5C 328.957,259.44 328.624,259.107 328.5,258.5C 330.396,257.534 332.396,257.201 334.5,257.5 Z"/></g>
<g><path style="opacity:1" fill="#ddb563" d="M 173.5,212.5 C 183.089,219.333 190.589,228 196,238.5C 196.495,236.527 196.662,234.527 196.5,232.5C 197.496,232.414 198.329,232.748 199,233.5C 199.792,237.568 201.625,241.068 204.5,244C 202.963,245.11 202.297,246.61 202.5,248.5C 203.978,248.238 205.311,248.571 206.5,249.5C 203.645,251.163 200.978,252.83 198.5,254.5C 201.731,254.815 205.064,254.982 208.5,255C 208.167,255.333 207.833,255.667 207.5,256C 208.996,259.49 211.496,261.99 215,263.5C 216.167,262.333 217.333,261.167 218.5,260C 221.626,259.01 224.626,257.844 227.5,256.5C 225.603,259.559 222.936,261.726 219.5,263C 222.95,265.963 224.283,269.797 223.5,274.5C 222.503,293.048 222.503,311.548 223.5,330C 225.714,334.905 226.714,340.071 226.5,345.5C 203.167,345.5 179.833,345.5 156.5,345.5C 156.5,339.833 156.5,334.167 156.5,328.5C 158.354,307.607 160.354,286.774 162.5,266C 162.92,260.683 161.254,256.183 157.5,252.5C 158.833,252.5 160.167,252.5 161.5,252.5C 162.567,256.532 163.567,260.532 164.5,264.5C 166.277,264.214 167.944,263.547 169.5,262.5C 170.442,262.608 171.275,262.941 172,263.5C 171.852,262.175 172.018,261.008 172.5,260C 175.898,258.084 179.565,257.084 183.5,257C 182.062,256.781 180.729,256.281 179.5,255.5C 181.911,254.912 183.911,253.745 185.5,252C 188.985,251.674 192.318,252.174 195.5,253.5C 195.5,252.5 195.5,251.5 195.5,250.5C 194.127,250.657 192.793,250.49 191.5,250C 194.029,248.938 196.696,248.105 199.5,247.5C 198.965,245.729 198.131,245.396 197,246.5C 195.69,243.873 194.023,241.54 192,239.5C 190.438,237.043 189.438,234.376 189,231.5C 187.989,230.663 186.822,230.33 185.5,230.5C 185.61,227.941 184.944,225.608 183.5,223.5C 181.677,221.842 180.01,220.009 178.5,218C 177.207,217.51 175.873,217.343 174.5,217.5C 174.371,215.784 174.038,214.117 173.5,212.5 Z"/></g>
<g><path style="opacity:1" fill="#627534" d="M 198.5,254.5 C 202.117,258.316 206.451,261.15 211.5,263C 208.5,263.333 205.5,263.667 202.5,264C 202,264.5 201.5,265 201,265.5C 199.292,281.161 197.625,296.828 196,312.5C 195.667,296.833 195.333,281.167 195,265.5C 194.167,264 193,262.833 191.5,262C 187.558,261.007 183.558,260.34 179.5,260C 185.647,257.597 191.98,255.764 198.5,254.5 Z"/></g>
<g><path style="opacity:1" fill="#6c7633" d="M 236.5,245.5 C 235.474,249.885 233.64,253.885 231,257.5C 229.429,259.923 227.263,261.256 224.5,261.5C 224.017,279.404 224.684,297.404 226.5,315.5C 226.5,317.167 226.5,318.833 226.5,320.5C 223.859,305.442 222.859,290.109 223.5,274.5C 224.283,269.797 222.95,265.963 219.5,263C 222.936,261.726 225.603,259.559 227.5,256.5C 230.878,253.124 233.878,249.457 236.5,245.5 Z"/></g>
<g><path style="opacity:1" fill="#6a7c54" d="M 329.5,260.5 C 329.209,261.649 328.376,262.316 327,262.5C 324.863,263.077 322.696,263.41 320.5,263.5C 320.64,265.124 319.973,266.29 318.5,267C 316.19,267.497 313.857,267.663 311.5,267.5C 311.5,268.5 311.5,269.5 311.5,270.5C 307.833,270.5 304.167,270.5 300.5,270.5C 305.959,269.437 311.293,268.103 316.5,266.5C 316.238,265.022 316.571,263.689 317.5,262.5C 321.012,259.532 325.012,258.865 329.5,260.5 Z"/></g>
<g><path style="opacity:1" fill="#617649" d="M 38.5,254.5 C 42.1259,256.498 46.1259,257.498 50.5,257.5C 50.9704,258.693 51.9704,259.36 53.5,259.5C 56.4682,260.162 59.4682,260.495 62.5,260.5C 62.5,262.167 62.5,263.833 62.5,265.5C 65.3113,265.571 67.978,266.238 70.5,267.5C 73.9936,266.22 77.4936,266.22 81,267.5C 84.3219,269.552 87.8219,271.386 91.5,273C 97.7593,273.202 103.926,274.035 110,275.5C 112.355,274.487 114.689,273.487 117,272.5C 117.772,273.849 118.939,274.682 120.5,275C 116.544,276.114 116.544,276.947 120.5,277.5C 119.713,279.104 118.38,279.771 116.5,279.5C 116.649,278.448 116.483,277.448 116,276.5C 112.625,277.937 109.125,278.937 105.5,279.5C 105.715,277.821 105.048,276.821 103.5,276.5C 100.941,276.802 98.6074,276.468 96.5,275.5C 96.1667,274.167 95.8333,274.167 95.5,275.5C 92.5,275.5 89.5,275.5 86.5,275.5C 86.7373,274.209 86.404,273.209 85.5,272.5C 82.6146,272.806 79.9479,272.473 77.5,271.5C 70.2039,270.151 63.5372,268.484 57.5,266.5C 57.6399,264.876 56.9733,263.71 55.5,263C 53.1902,262.503 50.8568,262.337 48.5,262.5C 48.33,261.178 48.6634,260.011 49.5,259C 45.236,258.519 41.236,257.353 37.5,255.5C 37.6236,254.893 37.9569,254.56 38.5,254.5 Z"/></g>
<g><path style="opacity:0.341" fill="#98a58a" d="M 77.5,271.5 C 79.9479,272.473 82.6146,272.806 85.5,272.5C 82.6447,273.803 79.6447,273.803 76.5,272.5C 76.6236,271.893 76.9569,271.56 77.5,271.5 Z"/></g>
<g><path style="opacity:1" fill="#667a4d" d="M 300.5,270.5 C 301.684,271.688 301.684,272.855 300.5,274C 298.101,274.711 295.768,274.544 293.5,273.5C 288.169,275.231 282.669,276.564 277,277.5C 275.076,277.419 273.243,277.086 271.5,276.5C 270.58,275.933 270.246,276.599 270.5,278.5C 269.167,278.5 267.833,278.5 266.5,278.5C 265.504,278.586 264.671,278.252 264,277.5C 263.612,278.428 262.945,279.095 262,279.5C 260.2,278.68 258.366,278.014 256.5,277.5C 256.5,277.167 256.5,276.833 256.5,276.5C 260.182,276.665 263.848,276.499 267.5,276C 268.337,274.989 268.67,273.822 268.5,272.5C 266.473,272.662 264.473,272.495 262.5,272C 266.75,270.297 271.083,270.13 275.5,271.5C 274.719,273.765 275.719,275.099 278.5,275.5C 281.206,274.19 284.039,273.19 287,272.5C 287.561,273.022 288.228,273.355 289,273.5C 292.913,272.686 296.746,271.686 300.5,270.5 Z"/></g>
<g><path style="opacity:0.184" fill="#a2ad8f" d="M 95.5,275.5 C 95.8333,275.5 96.1667,275.5 96.5,275.5C 98.6074,276.468 100.941,276.802 103.5,276.5C 102.378,277.156 101.045,277.489 99.5,277.5C 97.6672,277.415 96.3339,276.748 95.5,275.5 Z"/></g>
<g><path style="opacity:0.992" fill="#768862" d="M 145.5,277.5 C 144.09,278.828 142.924,278.495 142,276.5C 139.31,277.929 136.477,278.929 133.5,279.5C 133.649,278.448 133.483,277.448 133,276.5C 129.427,279.701 125.927,280.035 122.5,277.5C 124.209,277.392 126.209,277.225 128.5,277C 129.701,276.097 130.535,274.931 131,273.5C 134.021,276.537 137.521,277.204 141.5,275.5C 142.867,276.225 144.2,276.892 145.5,277.5 Z"/></g>
<g><path style="opacity:0.318" fill="#aebc8a" d="M 151.5,275.5 C 151.842,274.662 152.508,274.328 153.5,274.5C 153.5,275.833 153.5,277.167 153.5,278.5C 151.833,278.5 150.167,278.5 148.5,278.5C 148.5,277.833 148.167,277.5 147.5,277.5C 147.842,276.662 148.508,276.328 149.5,276.5C 150.386,277.776 151.386,277.776 152.5,276.5C 152.376,275.893 152.043,275.56 151.5,275.5 Z"/></g>
<g><path style="opacity:0.082" fill="#bcc3af" d="M 240.5,277.5 C 242.153,277.66 243.486,278.326 244.5,279.5C 242.62,279.771 241.287,279.104 240.5,277.5 Z"/></g>
<g><path style="opacity:0.2" fill="#abb1a0" d="M 271.5,276.5 C 271.5,277.5 271.5,278.5 271.5,279.5C 269.585,279.784 267.919,279.451 266.5,278.5C 267.833,278.5 269.167,278.5 270.5,278.5C 270.246,276.599 270.58,275.933 271.5,276.5 Z"/></g>
<g><path style="opacity:0.102" fill="#b9c8aa" d="M 142.5,280.5 C 142.5,281.5 142.5,282.5 142.5,283.5C 139.325,282.909 136.991,283.909 135.5,286.5C 134.438,285.425 134.438,284.425 135.5,283.5C 138.156,283.04 140.49,282.04 142.5,280.5 Z"/></g>
<g><path style="opacity:0.098" fill="#c4d6b7" d="M 236.5,281.5 C 238.5,282.167 240.5,282.833 242.5,283.5C 240.076,283.808 237.743,283.474 235.5,282.5C 235.624,281.893 235.957,281.56 236.5,281.5 Z"/></g>
<g><path style="opacity:1" fill="#5a743d" d="M 244.5,286.5 C 246.167,286.5 247.833,286.5 249.5,286.5C 249.5,287.5 249.5,288.5 249.5,289.5C 252.864,288.789 255.197,289.956 256.5,293C 257.793,293.49 259.127,293.657 260.5,293.5C 260.809,296.346 262.475,297.846 265.5,298C 266.071,299.205 266.738,300.372 267.5,301.5C 270.647,302.255 271.98,303.921 271.5,306.5C 271.973,307.906 272.973,308.573 274.5,308.5C 275.959,311.818 278.626,314.651 282.5,317C 281.944,317.383 281.611,317.883 281.5,318.5C 281.5,319.833 281.5,321.167 281.5,322.5C 277.196,321.362 272.862,320.029 268.5,318.5C 267.359,317.575 267.359,316.741 268.5,316C 266.581,314.066 265.081,314.233 264,316.5C 262.609,314.285 260.943,314.285 259,316.5C 255.855,316.764 252.688,316.098 249.5,314.5C 250.455,312.29 251.955,311.957 254,313.5C 255.555,309.229 258.389,307.729 262.5,309C 263.305,307.028 264.639,305.528 266.5,304.5C 266.081,303.328 265.415,302.328 264.5,301.5C 260.964,302.555 257.631,303.722 254.5,305C 253.399,302.708 254.232,301.208 257,300.5C 257.273,298.899 257.773,297.399 258.5,296C 255.89,295.776 253.39,296.276 251,297.5C 249.933,296.809 248.766,296.309 247.5,296C 249.248,295.92 250.915,295.087 252.5,293.5C 249.856,291.167 247.189,288.834 244.5,286.5 Z"/></g>
<g><path style="opacity:0.047" fill="#c2c5b0" d="M 271.5,306.5 C 273.027,306.427 274.027,307.094 274.5,308.5C 272.973,308.573 271.973,307.906 271.5,306.5 Z"/></g>
<g><path style="opacity:1" fill="#71845a" d="M 146.5,307.5 C 142.766,310.102 138.932,312.769 135,315.5C 134.586,315.043 134.086,314.709 133.5,314.5C 131.643,317.234 129.309,317.901 126.5,316.5C 127.919,315.549 129.585,315.216 131.5,315.5C 131.231,313.571 131.731,311.905 133,310.5C 133.333,310.833 133.667,311.167 134,311.5C 137.481,307.311 141.648,305.978 146.5,307.5 Z"/></g>
<g><path style="opacity:0.42" fill="#869673" d="M 149.5,316.5 C 149.665,312.818 149.499,309.152 149,305.5C 148.722,306.416 148.222,307.082 147.5,307.5C 147.5,306.167 147.5,304.833 147.5,303.5C 148.873,303.343 150.207,303.51 151.5,304C 150.86,308.268 150.193,312.435 149.5,316.5 Z"/></g>
<g><path style="opacity:1" fill="#697d52" d="M 249.5,314.5 C 252.688,316.098 255.855,316.764 259,316.5C 260.943,314.285 262.609,314.285 264,316.5C 265.081,314.233 266.581,314.066 268.5,316C 267.359,316.741 267.359,317.575 268.5,318.5C 272.862,320.029 277.196,321.362 281.5,322.5C 281.5,321.167 281.5,319.833 281.5,318.5C 285.146,320.817 288.48,323.484 291.5,326.5C 291.631,327.239 291.464,327.906 291,328.5C 288.42,326.747 285.587,325.747 282.5,325.5C 278.878,324.658 275.211,323.658 271.5,322.5C 268.451,323.712 265.784,323.045 263.5,320.5C 262.808,321.025 262.308,321.692 262,322.5C 260.333,321.167 258.667,319.833 257,318.5C 254.684,319.367 252.684,318.701 251,316.5C 248.684,317.367 246.684,316.701 245,314.5C 242.135,315.041 240.135,313.707 239,310.5C 236.909,311.5 235.243,310.833 234,308.5C 235.166,323.832 236.666,339.165 238.5,354.5C 237.091,356.626 235.424,356.96 233.5,355.5C 234.657,353.785 235.324,351.785 235.5,349.5C 235.125,343.983 234.458,338.649 233.5,333.5C 233.032,325.975 232.365,318.475 231.5,311C 232.148,309.56 232.481,308.06 232.5,306.5C 237.429,305.305 240.429,307.138 241.5,312C 244.371,312.131 246.705,313.297 248.5,315.5C 249.107,315.376 249.44,315.043 249.5,314.5 Z"/></g>
<g><path style="opacity:0.984" fill="#6d7f5a" d="M 126.5,316.5 C 125.442,319.242 123.609,319.909 121,318.5C 119.738,320.303 118.071,321.636 116,322.5C 115.692,321.692 115.192,321.025 114.5,320.5C 112.147,323.336 109.814,323.669 107.5,321.5C 107.611,320.883 107.944,320.383 108.5,320C 114.734,318.607 120.734,317.44 126.5,316.5 Z"/></g>
<g><path style="opacity:0.949" fill="#7a8968" d="M 92.5,321.5 C 92.5,322.5 92.5,323.5 92.5,324.5C 97.4583,323.292 102.458,322.292 107.5,321.5C 104.781,323.986 101.447,325.153 97.5,325C 93.6447,326.989 89.6447,328.823 85.5,330.5C 84.6919,330.192 84.0253,329.692 83.5,329C 86.3732,326.289 89.3732,323.789 92.5,321.5 Z"/></g>
<g><path style="opacity:0.545" fill="#979e8f" d="M 282.5,325.5 C 285.587,325.747 288.42,326.747 291,328.5C 291.464,327.906 291.631,327.239 291.5,326.5C 294.774,327.379 295.107,328.712 292.5,330.5C 288.852,329.191 285.519,327.524 282.5,325.5 Z"/></g>
<g><path style="opacity:0.318" fill="#829270" d="M 149.5,316.5 C 149.698,321.75 149.031,326.75 147.5,331.5C 147.302,326.25 147.969,321.25 149.5,316.5 Z"/></g>
<g><path style="opacity:1" fill="#c0ab5e" d="M 223.5,274.5 C 222.859,290.109 223.859,305.442 226.5,320.5C 226.194,323.385 226.527,326.052 227.5,328.5C 227.5,334.5 227.5,340.5 227.5,346.5C 203.167,346.5 178.833,346.5 154.5,346.5C 154.388,340.274 155.054,334.274 156.5,328.5C 156.5,334.167 156.5,339.833 156.5,345.5C 179.833,345.5 203.167,345.5 226.5,345.5C 226.714,340.071 225.714,334.905 223.5,330C 222.503,311.548 222.503,293.048 223.5,274.5 Z"/></g>
<g><path style="opacity:1" fill="#737a38" d="M 227.5,328.5 C 228.49,334.645 228.823,340.978 228.5,347.5C 203.661,347.831 178.994,347.498 154.5,346.5C 178.833,346.5 203.167,346.5 227.5,346.5C 227.5,340.5 227.5,334.5 227.5,328.5 Z"/></g>
</svg>
