<svg xmlns="http://www.w3.org/2000/svg" viewBox="0 0 100 100" fill="#4A6741">
  <path d="M50 5 C45 15, 40 25, 38 35 C35 28, 30 22, 23 18 C18 15, 12 13, 8 15 C5 16, 3 19, 4 22 C5 25, 8 27, 12 28 C18 30, 25 31, 32 35 C28 38, 23 42, 18 48 C12 42, 8 38, 5 35 C3 33, 1 32, 0 33 C-1 34, 0 36, 2 38 C5 41, 10 44, 16 48 C12 52, 10 58, 10 65 C5 63, 2 60, 0 58 C-1 57, -1 58, 0 60 C2 63, 6 67, 12 70 C15 72, 20 73, 25 72 C28 80, 35 88, 42 92 C38 93, 35 94, 33 96 C32 97, 33 98, 35 98 C38 98, 42 96, 47 93 C48 93, 49 93, 50 93 C51 93, 52 93, 53 93 C58 96, 62 98, 65 98 C67 98, 68 97, 67 96 C65 94, 62 93, 58 92 C65 88, 72 80, 75 72 C80 73, 85 72, 88 70 C94 67, 98 63, 100 60 C101 58, 101 57, 100 58 C98 60, 95 63, 90 65 C90 58, 88 52, 84 48 C90 44, 95 41, 98 38 C100 36, 101 34, 100 33 C99 32, 97 33, 95 35 C92 38, 88 42, 82 48 C77 42, 72 38, 68 35 C75 31, 82 30, 88 28 C92 27, 95 25, 96 22 C97 19, 95 16, 92 15 C88 13, 82 15, 77 18 C70 22, 65 28, 62 35 C60 25, 55 15, 50 5 Z M50 40 C53 50, 55 60, 55 70 C55 75, 53 80, 50 85 C47 80, 45 75, 45 70 C45 60, 47 50, 50 40 Z"/>
</svg>
